<?xml version="1.0" encoding="UTF-8" standalone="no"?>
<!-- Generator: Adobe Illustrator 16.0.0, SVG Export Plug-In . SVG Version: 6.00 Build 0)  -->

<svg
   xmlns:dc="http://purl.org/dc/elements/1.1/"
   xmlns:cc="http://creativecommons.org/ns#"
   xmlns:rdf="http://www.w3.org/1999/02/22-rdf-syntax-ns#"
   xmlns:svg="http://www.w3.org/2000/svg"
   xmlns="http://www.w3.org/2000/svg"
   xmlns:sodipodi="http://sodipodi.sourceforge.net/DTD/sodipodi-0.dtd"
   xmlns:inkscape="http://www.inkscape.org/namespaces/inkscape"
   version="1.1"
   id="Layer_1"
   x="0px"
   y="0px"
   width="500px"
   height="500px"
   viewBox="0 0 500 500"
   enable-background="new 0 0 500 500"
   xml:space="preserve"
   inkscape:version="0.91 r13725"
   sodipodi:docname="artstation.svg"><metadata
     id="metadata47"><rdf:RDF><cc:Work
         rdf:about=""><dc:format>image/svg+xml</dc:format><dc:type
           rdf:resource="http://purl.org/dc/dcmitype/StillImage" /></cc:Work></rdf:RDF></metadata><defs
     id="defs45" /><sodipodi:namedview
     pagecolor="#ffffff"
     bordercolor="#666666"
     borderopacity="1"
     objecttolerance="10"
     gridtolerance="10"
     guidetolerance="10"
     inkscape:pageopacity="0"
     inkscape:pageshadow="2"
     inkscape:window-width="640"
     inkscape:window-height="480"
     id="namedview43"
     showgrid="false"
     inkscape:zoom="0.472"
     inkscape:cx="250"
     inkscape:cy="250"
     inkscape:window-x="369"
     inkscape:window-y="191"
     inkscape:window-maximized="0"
     inkscape:current-layer="Layer_1" /><polygon
     points="165.979,116.372 70.661,279 261.298,279 "
     id="polygon7"
     style="fill:#303030"
     transform="matrix(1.1926234,0,0,1.1926234,-42.940991,-34.183658)" /><path
     d="M -0.07094915,368.92307 39.717354,434.47561 c 0,0 6.981617,12.68116 14.280473,18.57392 7.298855,5.89513 16.24592,11.28341 28.03381,11.28341 11.78789,0 284.334543,0 284.334543,0 l -57.26143,-95.40987 -309.17569915,0 z"
     id="path9"
     style="fill:#303030"
     inkscape:connector-curvature="0" /><path
     d="m 196.27065,33.795877 84.20636,0 c 0,0 28.62774,-4.273169 43.15509,20.145795 14.52615,24.420158 164.83247,279.429288 168.41274,285.112138 3.57787,5.68524 12.84217,28.4548 -1.05429,54.34903 -13.89287,25.89186 -40.418,72.60573 -40.418,72.60573 L 196.27065,33.795877 Z"
     id="path11"
     style="fill:#303030"
     inkscape:connector-curvature="0" /><g
     id="g13" /><g
     id="g15" /><g
     id="g17" /><g
     id="g19" /><g
     id="g21" /><g
     id="g23" /><g
     id="g25" /><g
     id="g27" /><g
     id="g29" /><g
     id="g31" /><g
     id="g33" /><g
     id="g35" /><g
     id="g37" /><g
     id="g39" /><g
     id="g41" /></svg>