<?xml version="1.0" encoding="utf-8"?>
<!-- Generator: Adobe Illustrator 17.1.0, SVG Export Plug-In . SVG Version: 6.00 Build 0)  -->
<!DOCTYPE svg PUBLIC "-//W3C//DTD SVG 1.1//EN" "http://www.w3.org/Graphics/SVG/1.1/DTD/svg11.dtd">
<svg version="1.1" id="Layer_1" xmlns="http://www.w3.org/2000/svg" xmlns:xlink="http://www.w3.org/1999/xlink" x="0px" y="0px"
	 viewBox="0 0 19.8 19.5" enable-background="new 0 0 19.8 19.5" xml:space="preserve">
<path id="google_plus_2_" display="none" fill-rule="evenodd" clip-rule="evenodd" fill="#303030" d="M16.1,5.9v2.8H15V5.9h-2.8V4.8
	H15V2h1.1v2.8h2.8v1.1H16.1z M8.3,3.1c1,0.6,1.6,1.5,1.6,2.6c0,1-0.6,1.8-1.4,2.4C7.7,8.7,7.5,9,7.5,9.5c0,0.4,0.8,1.2,1.3,1.5
	c1.3,0.9,1.6,1.7,1.6,3c0,1.7-1.6,3.6-4.7,3.6c-2.7,0-5-1.3-5-3c0-1.7,2.1-3.4,4.8-3.4c0.3,0,0.6,0,0.8,0c-0.4-0.3-0.6-0.8-0.6-1.3
	C5.8,9.6,5.9,9.3,6,9C5.9,9,5.7,9,5.6,9C3.4,9,1.9,7.4,1.9,5.5c0-1.8,2-3.5,4.2-3.5c1.2,0,4.8,0,4.8,0L9.8,3.1H8.3z M6.1,11.7
	c-1.8,0-3.5,1.1-3.5,2.4c0,1.4,1.3,2.4,3.2,2.4c2.6,0,3.5-0.9,3.5-2.3c0-0.2,0-0.3-0.1-0.5c-0.2-0.8-0.9-1.2-1.9-1.8
	C6.9,11.7,6.5,11.7,6.1,11.7z M8.1,5.8C7.9,4.2,6.7,2.9,5.5,2.9c-1.2,0-2.1,1.2-1.8,2.8C3.9,7.2,5,8.5,6.3,8.6
	C7.5,8.6,8.4,7.4,8.1,5.8z"/>
<path id="twitter_2_" display="none" fill-rule="evenodd" clip-rule="evenodd" fill="#303030" d="M13.1,2.4c1.4,0,2.2,0.5,2.9,1.2
	c0.6-0.1,1.4-0.4,1.9-0.6c0.2-0.1,0.3-0.2,0.5-0.3c-0.3,0.7-0.6,1.3-1.2,1.7c-0.1,0.1-0.3,0.2-0.4,0.3v0c0.8,0,1.5-0.4,2.1-0.6v0
	c-0.3,0.5-0.8,1.1-1.3,1.4c-0.2,0.2-0.4,0.3-0.6,0.5c0,0.9,0,1.7-0.2,2.4c-0.9,4.2-3.4,7-7.3,8.2c-1.4,0.4-3.7,0.6-5.3,0.2
	c-0.8-0.2-1.5-0.4-2.2-0.7c-0.4-0.2-0.7-0.3-1.1-0.5c-0.1-0.1-0.2-0.1-0.3-0.2c0.4,0,0.8,0.1,1.2,0c0.4-0.1,0.7,0,1.1-0.1
	c0.8-0.2,1.6-0.4,2.2-0.8c0.3-0.2,0.8-0.4,1-0.7c-0.4,0-0.8-0.1-1.1-0.2c-1.2-0.4-1.9-1.2-2.4-2.4c0.4,0,1.4,0.1,1.7-0.1
	c-0.5,0-0.9-0.3-1.2-0.5c-1-0.6-1.8-1.6-1.7-3.2c0.1,0.1,0.3,0.1,0.4,0.2C2.2,7.9,2.4,7.9,2.7,8c0.1,0,0.4,0.1,0.5,0c0,0,0,0,0,0
	C3,7.8,2.7,7.7,2.5,7.4C1.9,6.6,1.3,5.5,1.7,4c0.1-0.4,0.2-0.7,0.4-1c0,0,0,0,0,0c0.1,0.2,0.2,0.3,0.3,0.4c0.3,0.4,0.7,0.7,1.1,1.1
	c1.4,1.1,2.6,1.7,4.5,2.2c0.5,0.1,1.1,0.2,1.7,0.2c-0.2-0.5-0.1-1.3,0-1.7c0.3-1.2,1-2,2.1-2.5c0.3-0.1,0.5-0.2,0.8-0.3
	C12.8,2.4,13,2.4,13.1,2.4z"/>
<path id="facebook_4_" fill-rule="evenodd" clip-rule="evenodd" fill="#303030" d="M14.1,0.7c0,1,0,2.9,0,2.9S12,3.4,11.4,4.3
	C11.1,4.7,11.3,6,11.3,7c0.9,0,1.9,0,2.8,0c-0.2,1.1-0.4,1.9-0.6,2.8c-0.8,0-2.3,0-2.3,0v9.1c0,0-2.7,0-3.9,0c0-2.8,0-6,0-9
	c-0.6,0-1.1,0-1.7,0c0-1,0-1.8,0-2.8c0.6,0,1.1,0,1.7,0c0.1-2.1,0.1-4.1,1.2-5.2C9.6,0.6,10.7,0.7,14.1,0.7z"/>
</svg>
