<svg xmlns="http://www.w3.org/2000/svg" viewBox="0 0 684 584">
<path fill="#303030" d="M526,324c-30.9,0-59.8-13.1-86.1-34.4l6.4-30.1l0.3-1.1c5.7-32,23.8-85.7,79.5-85.7c41.7,0,75.7,34,75.7,75.7C601.5,290,567.6,324,526,324z M526,96c-71.1,0-126.2,46.2-148.6,122.2c-34.2-51.3-60.1-113-75.3-164.9h-76.5v199.1c0,39.2-32,71.2-71.2,71.2S83,291.7,83,252.4V53.3H6.5v199.1C6.2,334,72.6,400.9,154.1,400.9S302.1,334,302.1,252.4V219c14.9,31,33.1,62.3,55.2,90.2l-46.9,220.4h78.3l34-159.9c29.8,19.1,64,31,103.3,31c83.9,0,152.2-68.7,152.2-152.7C678.2,164.3,609.9,96,526,96"/>
</svg>
